<mxfile host="app.diagrams.net" agent="Mozilla/5.0 (Macintosh; Intel Mac OS X 10_15_7) AppleWebKit/537.36 (KHTML, like Gecko) Chrome/130.0.0.0 Safari/537.36" version="24.8.3">
  <diagram name="Page-1" id="e7e014a7-5840-1c2e-5031-d8a46d1fe8dd">
    <mxGraphModel dx="463" dy="605" grid="1" gridSize="10" guides="1" tooltips="1" connect="1" arrows="1" fold="1" page="1" pageScale="1" pageWidth="1169" pageHeight="826" background="none" math="0" shadow="0">
      <root>
        <mxCell id="0" />
        <mxCell id="1" parent="0" />
        <mxCell id="ILF2Rl3uya5SENsH_AGz-44" value="" style="rounded=1;whiteSpace=wrap;html=1;" vertex="1" parent="1">
          <mxGeometry x="70" y="120" width="920" height="720" as="geometry" />
        </mxCell>
        <mxCell id="ILF2Rl3uya5SENsH_AGz-41" value="" style="ellipse;html=1;shape=startState;fillColor=#000000;strokeColor=#ff0000;" vertex="1" parent="1">
          <mxGeometry x="190" y="70" width="30" height="30" as="geometry" />
        </mxCell>
        <mxCell id="ILF2Rl3uya5SENsH_AGz-43" value="Server" style="text;strokeColor=none;align=center;fillColor=none;html=1;verticalAlign=middle;whiteSpace=wrap;rounded=0;" vertex="1" parent="1">
          <mxGeometry x="175" y="40" width="60" height="30" as="geometry" />
        </mxCell>
        <mxCell id="ILF2Rl3uya5SENsH_AGz-51" style="edgeStyle=orthogonalEdgeStyle;rounded=0;orthogonalLoop=1;jettySize=auto;html=1;exitX=0.5;exitY=1;exitDx=0;exitDy=0;entryX=0.5;entryY=0;entryDx=0;entryDy=0;" edge="1" parent="1" source="ILF2Rl3uya5SENsH_AGz-45" target="ILF2Rl3uya5SENsH_AGz-50">
          <mxGeometry relative="1" as="geometry" />
        </mxCell>
        <mxCell id="ILF2Rl3uya5SENsH_AGz-45" value="initializing" style="swimlane;fontStyle=1;align=center;verticalAlign=middle;childLayout=stackLayout;horizontal=1;startSize=30;horizontalStack=0;resizeParent=0;resizeLast=1;container=0;collapsible=0;rounded=1;arcSize=30;swimlaneFillColor=#FFFFFF;dropTarget=0;glass=0;" vertex="1" parent="1">
          <mxGeometry x="125" y="175" width="160" height="60" as="geometry" />
        </mxCell>
        <mxCell id="ILF2Rl3uya5SENsH_AGz-48" style="edgeStyle=orthogonalEdgeStyle;rounded=0;orthogonalLoop=1;jettySize=auto;html=1;exitX=0.5;exitY=1;exitDx=0;exitDy=0;strokeColor=#FF0505;" edge="1" parent="1" source="ILF2Rl3uya5SENsH_AGz-41" target="ILF2Rl3uya5SENsH_AGz-45">
          <mxGeometry relative="1" as="geometry" />
        </mxCell>
        <mxCell id="ILF2Rl3uya5SENsH_AGz-49" value="start" style="text;strokeColor=none;align=center;fillColor=none;html=1;verticalAlign=middle;whiteSpace=wrap;rounded=0;" vertex="1" parent="1">
          <mxGeometry x="200" y="130" width="60" height="30" as="geometry" />
        </mxCell>
        <mxCell id="ILF2Rl3uya5SENsH_AGz-54" value="success init" style="edgeStyle=orthogonalEdgeStyle;rounded=0;orthogonalLoop=1;jettySize=auto;html=1;exitX=0.5;exitY=1;exitDx=0;exitDy=0;" edge="1" parent="1" source="ILF2Rl3uya5SENsH_AGz-50" target="ILF2Rl3uya5SENsH_AGz-53">
          <mxGeometry relative="1" as="geometry">
            <Array as="points">
              <mxPoint x="205" y="340" />
              <mxPoint x="205" y="340" />
            </Array>
          </mxGeometry>
        </mxCell>
        <mxCell id="ILF2Rl3uya5SENsH_AGz-50" value="" style="rhombus;whiteSpace=wrap;html=1;" vertex="1" parent="1">
          <mxGeometry x="190" y="290" width="30" height="30" as="geometry" />
        </mxCell>
        <mxCell id="ILF2Rl3uya5SENsH_AGz-52" value="" style="ellipse;html=1;shape=endState;fillColor=#000000;strokeColor=#ff0000;" vertex="1" parent="1">
          <mxGeometry x="510" y="220" width="30" height="30" as="geometry" />
        </mxCell>
        <mxCell id="ILF2Rl3uya5SENsH_AGz-57" style="edgeStyle=orthogonalEdgeStyle;rounded=0;orthogonalLoop=1;jettySize=auto;html=1;exitX=0.5;exitY=1;exitDx=0;exitDy=0;entryX=0.5;entryY=0;entryDx=0;entryDy=0;" edge="1" parent="1" source="ILF2Rl3uya5SENsH_AGz-53" target="ILF2Rl3uya5SENsH_AGz-56">
          <mxGeometry relative="1" as="geometry" />
        </mxCell>
        <mxCell id="ILF2Rl3uya5SENsH_AGz-53" value="connect a database" style="swimlane;fontStyle=1;align=center;verticalAlign=middle;childLayout=stackLayout;horizontal=1;startSize=30;horizontalStack=0;resizeParent=0;resizeLast=1;container=0;collapsible=0;rounded=1;arcSize=30;swimlaneFillColor=#FFFFFF;dropTarget=0;glass=0;" vertex="1" parent="1">
          <mxGeometry x="125" y="370" width="160" height="60" as="geometry" />
        </mxCell>
        <mxCell id="ILF2Rl3uya5SENsH_AGz-63" value="success connection DB" style="edgeStyle=orthogonalEdgeStyle;rounded=0;orthogonalLoop=1;jettySize=auto;html=1;exitX=0.5;exitY=1;exitDx=0;exitDy=0;entryX=0;entryY=0.5;entryDx=0;entryDy=0;" edge="1" parent="1" source="ILF2Rl3uya5SENsH_AGz-56" target="ILF2Rl3uya5SENsH_AGz-62">
          <mxGeometry relative="1" as="geometry" />
        </mxCell>
        <mxCell id="ILF2Rl3uya5SENsH_AGz-56" value="" style="rhombus;whiteSpace=wrap;html=1;" vertex="1" parent="1">
          <mxGeometry x="190" y="490" width="30" height="30" as="geometry" />
        </mxCell>
        <mxCell id="ILF2Rl3uya5SENsH_AGz-59" value="" style="endArrow=classic;html=1;rounded=0;entryX=0;entryY=0.5;entryDx=0;entryDy=0;exitX=1;exitY=0.5;exitDx=0;exitDy=0;" edge="1" parent="1" source="ILF2Rl3uya5SENsH_AGz-50" target="ILF2Rl3uya5SENsH_AGz-52">
          <mxGeometry width="50" height="50" relative="1" as="geometry">
            <mxPoint x="320" y="420" as="sourcePoint" />
            <mxPoint x="370" y="370" as="targetPoint" />
          </mxGeometry>
        </mxCell>
        <mxCell id="ILF2Rl3uya5SENsH_AGz-61" value="failed init" style="edgeLabel;html=1;align=center;verticalAlign=middle;resizable=0;points=[];" vertex="1" connectable="0" parent="ILF2Rl3uya5SENsH_AGz-59">
          <mxGeometry x="-0.059" relative="1" as="geometry">
            <mxPoint y="1" as="offset" />
          </mxGeometry>
        </mxCell>
        <mxCell id="ILF2Rl3uya5SENsH_AGz-60" value="failed connection" style="endArrow=classic;html=1;rounded=0;exitX=1;exitY=0.5;exitDx=0;exitDy=0;entryX=0;entryY=1;entryDx=0;entryDy=0;" edge="1" parent="1" source="ILF2Rl3uya5SENsH_AGz-56" target="ILF2Rl3uya5SENsH_AGz-52">
          <mxGeometry width="50" height="50" relative="1" as="geometry">
            <mxPoint x="230" y="315" as="sourcePoint" />
            <mxPoint x="590" y="250" as="targetPoint" />
          </mxGeometry>
        </mxCell>
        <mxCell id="ILF2Rl3uya5SENsH_AGz-64" value="shutdown" style="edgeStyle=orthogonalEdgeStyle;rounded=0;orthogonalLoop=1;jettySize=auto;html=1;exitX=0.5;exitY=0;exitDx=0;exitDy=0;entryX=0.5;entryY=1;entryDx=0;entryDy=0;" edge="1" parent="1" source="ILF2Rl3uya5SENsH_AGz-62" target="ILF2Rl3uya5SENsH_AGz-52">
          <mxGeometry relative="1" as="geometry" />
        </mxCell>
        <mxCell id="ILF2Rl3uya5SENsH_AGz-66" value="requested" style="edgeStyle=orthogonalEdgeStyle;rounded=0;orthogonalLoop=1;jettySize=auto;html=1;exitX=1;exitY=0.75;exitDx=0;exitDy=0;entryX=0;entryY=0.75;entryDx=0;entryDy=0;" edge="1" parent="1" source="ILF2Rl3uya5SENsH_AGz-62" target="ILF2Rl3uya5SENsH_AGz-65">
          <mxGeometry relative="1" as="geometry" />
        </mxCell>
        <mxCell id="ILF2Rl3uya5SENsH_AGz-62" value="Idle" style="swimlane;fontStyle=1;align=center;verticalAlign=middle;childLayout=stackLayout;horizontal=1;startSize=30;horizontalStack=0;resizeParent=0;resizeLast=1;container=0;collapsible=0;rounded=1;arcSize=30;swimlaneFillColor=#FFFFFF;dropTarget=0;glass=0;" vertex="1" parent="1">
          <mxGeometry x="445" y="580" width="160" height="60" as="geometry" />
        </mxCell>
        <mxCell id="ILF2Rl3uya5SENsH_AGz-67" value="request done." style="edgeStyle=orthogonalEdgeStyle;rounded=0;orthogonalLoop=1;jettySize=auto;html=1;exitX=0;exitY=0.25;exitDx=0;exitDy=0;entryX=1;entryY=0.25;entryDx=0;entryDy=0;" edge="1" parent="1" source="ILF2Rl3uya5SENsH_AGz-65" target="ILF2Rl3uya5SENsH_AGz-62">
          <mxGeometry relative="1" as="geometry" />
        </mxCell>
        <mxCell id="ILF2Rl3uya5SENsH_AGz-71" style="edgeStyle=orthogonalEdgeStyle;rounded=0;orthogonalLoop=1;jettySize=auto;html=1;exitX=0.75;exitY=0;exitDx=0;exitDy=0;entryX=0.75;entryY=1;entryDx=0;entryDy=0;" edge="1" parent="1" source="ILF2Rl3uya5SENsH_AGz-65" target="ILF2Rl3uya5SENsH_AGz-68">
          <mxGeometry relative="1" as="geometry" />
        </mxCell>
        <mxCell id="ILF2Rl3uya5SENsH_AGz-78" value="Processed API" style="edgeLabel;html=1;align=center;verticalAlign=middle;resizable=0;points=[];" vertex="1" connectable="0" parent="ILF2Rl3uya5SENsH_AGz-71">
          <mxGeometry x="-0.0268" y="-1" relative="1" as="geometry">
            <mxPoint as="offset" />
          </mxGeometry>
        </mxCell>
        <mxCell id="ILF2Rl3uya5SENsH_AGz-65" value="Processing" style="swimlane;fontStyle=1;align=center;verticalAlign=middle;childLayout=stackLayout;horizontal=1;startSize=30;horizontalStack=0;resizeParent=0;resizeLast=1;container=0;collapsible=0;rounded=1;arcSize=30;swimlaneFillColor=#FFFFFF;dropTarget=0;glass=0;" vertex="1" parent="1">
          <mxGeometry x="720" y="580" width="160" height="60" as="geometry" />
        </mxCell>
        <mxCell id="ILF2Rl3uya5SENsH_AGz-70" style="edgeStyle=orthogonalEdgeStyle;rounded=0;orthogonalLoop=1;jettySize=auto;html=1;exitX=0.25;exitY=1;exitDx=0;exitDy=0;entryX=0.25;entryY=0;entryDx=0;entryDy=0;" edge="1" parent="1" source="ILF2Rl3uya5SENsH_AGz-68" target="ILF2Rl3uya5SENsH_AGz-65">
          <mxGeometry relative="1" as="geometry" />
        </mxCell>
        <mxCell id="ILF2Rl3uya5SENsH_AGz-79" value="Response" style="edgeLabel;html=1;align=center;verticalAlign=middle;resizable=0;points=[];" vertex="1" connectable="0" parent="ILF2Rl3uya5SENsH_AGz-70">
          <mxGeometry x="-0.1155" relative="1" as="geometry">
            <mxPoint as="offset" />
          </mxGeometry>
        </mxCell>
        <mxCell id="ILF2Rl3uya5SENsH_AGz-68" value="Send API to client" style="swimlane;fontStyle=1;align=center;verticalAlign=middle;childLayout=stackLayout;horizontal=1;startSize=30;horizontalStack=0;resizeParent=0;resizeLast=1;container=0;collapsible=0;rounded=1;arcSize=30;swimlaneFillColor=#FFFFFF;dropTarget=0;glass=0;" vertex="1" parent="1">
          <mxGeometry x="720" y="383" width="160" height="60" as="geometry" />
        </mxCell>
        <mxCell id="ILF2Rl3uya5SENsH_AGz-73" value="DB" style="shape=datastore;whiteSpace=wrap;html=1;" vertex="1" parent="1">
          <mxGeometry x="770" y="730" width="60" height="60" as="geometry" />
        </mxCell>
        <mxCell id="ILF2Rl3uya5SENsH_AGz-76" value="" style="endArrow=classic;html=1;rounded=0;entryX=0.15;entryY=0.05;entryDx=0;entryDy=0;entryPerimeter=0;exitX=0.25;exitY=1;exitDx=0;exitDy=0;spacingTop=30;" edge="1" parent="1" source="ILF2Rl3uya5SENsH_AGz-65" target="ILF2Rl3uya5SENsH_AGz-73">
          <mxGeometry width="50" height="50" relative="1" as="geometry">
            <mxPoint x="740" y="660" as="sourcePoint" />
            <mxPoint x="790" y="610" as="targetPoint" />
          </mxGeometry>
        </mxCell>
        <mxCell id="ILF2Rl3uya5SENsH_AGz-80" value="Request data" style="edgeLabel;html=1;align=center;verticalAlign=middle;resizable=0;points=[];" vertex="1" connectable="0" parent="ILF2Rl3uya5SENsH_AGz-76">
          <mxGeometry x="-0.0841" relative="1" as="geometry">
            <mxPoint as="offset" />
          </mxGeometry>
        </mxCell>
        <mxCell id="ILF2Rl3uya5SENsH_AGz-77" value="Send data" style="endArrow=classic;html=1;rounded=0;entryX=0.75;entryY=1;entryDx=0;entryDy=0;exitX=0.85;exitY=0.05;exitDx=0;exitDy=0;exitPerimeter=0;spacingTop=-30;" edge="1" parent="1" source="ILF2Rl3uya5SENsH_AGz-73" target="ILF2Rl3uya5SENsH_AGz-65">
          <mxGeometry x="0.0026" width="50" height="50" relative="1" as="geometry">
            <mxPoint x="770" y="650" as="sourcePoint" />
            <mxPoint x="789" y="743" as="targetPoint" />
            <mxPoint as="offset" />
          </mxGeometry>
        </mxCell>
      </root>
    </mxGraphModel>
  </diagram>
</mxfile>
